<svg preserveAspectRatio="none" overflow="visible" style="display: block;" width="20" height="20" viewBox="0 0 20 20" fill="none" xmlns="http://www.w3.org/2000/svg">
<g id="Frame">
<path id="Vector" d="M4.44444 6.66671H3.33333C2.41286 6.66671 1.66667 7.4129 1.66667 8.33342V11.6667C1.66667 12.5872 2.41286 13.3334 3.33333 13.3334H4.44444C4.80506 13.3334 5.15595 13.4503 5.44444 13.6668L9.33333 16.5834C9.608 16.7894 10 16.5934 10 16.2501V3.75004C10 3.40669 9.608 3.2107 9.33333 3.41671L5.44444 6.33337C5.15595 6.54975 4.80506 6.66671 4.44444 6.66671Z" stroke="white" stroke-width="1.75" stroke-linecap="round" stroke-linejoin="round"/>
<path id="Vector_2" d="M14.2493 11.4918C14.3553 11.1694 14.8113 11.1694 14.9174 11.4918L15.235 12.4575C15.2699 12.5636 15.3531 12.6468 15.4592 12.6817L16.4248 12.9993C16.7473 13.1053 16.7473 13.5613 16.4248 13.6674L15.4592 13.985C15.3531 14.0199 15.2699 14.1031 15.235 14.2092L14.9174 15.1748C14.8113 15.4973 14.3553 15.4973 14.2493 15.1748L13.9317 14.2092C13.8968 14.1031 13.8136 14.0199 13.7075 13.985L12.7418 13.6674C12.4194 13.5613 12.4194 13.1053 12.7418 12.9993L13.7075 12.6817C13.8136 12.6468 13.8968 12.5636 13.9317 12.4575L14.2493 11.4918Z" fill="white"/>
<path id="Vector_3" d="M15.7823 4.92185C15.9307 4.47049 16.5692 4.47049 16.7177 4.92185L17.1623 6.27381C17.2112 6.42233 17.3277 6.53883 17.4762 6.58768L18.8282 7.03231C19.2795 7.18076 19.2795 7.81925 18.8282 7.96769L17.4762 8.41233C17.3277 8.46117 17.2112 8.57767 17.1623 8.72617L16.7177 10.0782C16.5692 10.5295 15.9307 10.5295 15.7823 10.0782L15.3377 8.72617C15.2888 8.57767 15.1723 8.46117 15.0238 8.41233L13.6718 7.96769C13.2205 7.81924 13.2205 7.18075 13.6718 7.03231L15.0238 6.58768C15.1723 6.53883 15.2888 6.42233 15.3377 6.2738L15.7823 4.92185Z" fill="white"/>
</g>
</svg>
